<svg width="46" height="46" viewBox="0 0 46 46" fill="none" xmlns="http://www.w3.org/2000/svg">
<g clip-path="url(#clip0_3_1365)">
<path d="M22.9979 46.0001C19.3102 46.0001 15.5908 45.0898 15.5908 43.0568V25.6325C15.5908 22.9224 16.7102 20.7971 17.7929 18.7411C18.7808 16.8626 19.7148 15.0918 19.7148 12.9981V9.76974C19.7148 9.54328 19.8048 9.32609 19.9649 9.16597C20.1251 9.00584 20.3422 8.91589 20.5687 8.91589C20.7951 8.91589 21.0124 9.00584 21.1725 9.16597C21.3326 9.32609 21.4225 9.54328 21.4225 9.76974V12.9981C21.4225 15.5136 20.345 17.5593 19.3033 19.536C18.2719 21.4947 17.2985 23.3442 17.2985 25.6325V43.0568C17.4556 43.3719 19.3972 44.2924 22.9979 44.2924C26.5986 44.2924 28.5393 43.3719 28.705 43.0065L28.6965 25.6325C28.6965 23.3442 27.7231 21.4947 26.6916 19.536C25.6499 17.5593 24.5724 15.5136 24.5724 12.9981V9.76974C24.5724 9.54328 24.6624 9.32609 24.8225 9.16597C24.9826 9.00584 25.1998 8.91589 25.4262 8.91589C25.6527 8.91589 25.8699 9.00584 26.03 9.16597C26.1901 9.32609 26.2801 9.54328 26.2801 9.76974V12.9981C26.2801 15.0918 27.2142 16.8635 28.2021 18.7411C29.2847 20.7971 30.4042 22.9249 30.4042 25.6325V43.0568C30.4042 45.0898 26.6848 46.0001 22.9979 46.0001Z" fill="#345D73"/>
<path d="M22.9979 38.5545C19.3102 38.5545 15.5908 37.6443 15.5908 35.6113C15.5908 35.3848 15.6807 35.1676 15.8409 35.0075C16.001 34.8474 16.2182 34.7574 16.4447 34.7574C16.6711 34.7574 16.8883 34.8474 17.0484 35.0075C17.2085 35.1676 17.2985 35.3848 17.2985 35.6113C17.4556 35.9263 19.3981 36.8468 22.9979 36.8468C26.5977 36.8468 28.5393 35.9255 28.705 35.56C28.7052 35.4495 28.7274 35.3401 28.7705 35.2384C28.8135 35.1366 28.8765 35.0444 28.9556 34.9672C29.0347 34.8901 29.1285 34.8295 29.2313 34.7891C29.3342 34.7487 29.4441 34.7292 29.5545 34.7318C29.7839 34.7367 30.0021 34.8318 30.1619 34.9964C30.3217 35.161 30.4102 35.3819 30.4084 35.6113C30.4041 37.6443 26.6848 38.5545 22.9979 38.5545Z" fill="#345D73"/>
<path d="M22.9979 30.8144C19.3102 30.8144 15.5908 29.9042 15.5908 27.8703C15.5908 27.6439 15.6807 27.4267 15.8409 27.2666C16.001 27.1064 16.2182 27.0165 16.4447 27.0165C16.6711 27.0165 16.8883 27.1064 17.0484 27.2666C17.2085 27.4267 17.2985 27.6439 17.2985 27.8703C17.4548 28.1863 19.3964 29.1067 22.9979 29.1067C26.5994 29.1067 28.5393 28.1862 28.705 27.8191C28.7052 27.7086 28.7274 27.5993 28.7705 27.4975C28.8135 27.3958 28.8765 27.3037 28.9556 27.2266C29.0348 27.1495 29.1285 27.089 29.2314 27.0487C29.3342 27.0084 29.4441 26.989 29.5545 26.9917C29.7839 26.9962 30.0022 27.091 30.1621 27.2555C30.322 27.42 30.4105 27.641 30.4084 27.8703C30.4041 29.9042 26.6848 30.8144 22.9979 30.8144Z" fill="#345D73"/>
<path d="M19.1445 19.2082L22.9979 23.0616V20.8817L19.7533 17.941" fill="#345D73"/>
<path d="M26.8376 19.2082L22.9842 23.0616V20.8817L26.2288 17.941" fill="#345D73"/>
<path d="M19.1576 10.3282C18.9521 10.3282 18.7534 10.2541 18.5981 10.1194C18.4429 9.98474 18.3414 9.79857 18.3123 9.59511C18.2832 9.39164 18.3285 9.18452 18.4399 9.01176C18.5512 8.83901 18.7212 8.71222 18.9185 8.65467C19.0999 8.01221 19.1562 7.34085 19.0842 6.67716C18.9584 5.25373 18.9584 3.82199 19.0842 2.39856C19.1122 2.17556 19.2259 1.9722 19.4012 1.8315C19.5765 1.6908 19.7996 1.62377 20.0234 1.64459C20.1348 1.65702 20.2427 1.69129 20.341 1.74544C20.4392 1.79958 20.5258 1.87256 20.5958 1.96017C20.6658 2.04779 20.7179 2.14834 20.749 2.25608C20.7802 2.36382 20.7898 2.47664 20.7773 2.5881C20.6633 3.89485 20.6633 5.20904 20.7773 6.51579C20.8627 7.62579 20.8926 10.1728 19.2301 10.3273C19.2105 10.3282 19.1841 10.3282 19.1576 10.3282Z" fill="#345D73"/>
<path d="M26.8388 10.3282C26.8114 10.3282 26.785 10.3282 26.7585 10.3282C25.0969 10.1737 25.1217 7.62921 25.2088 6.54312C25.3243 5.22845 25.3243 3.9062 25.2088 2.59153C25.1836 2.36633 25.249 2.14037 25.3905 1.96335C25.5319 1.78633 25.7379 1.67275 25.9631 1.64761C26.1884 1.62247 26.4143 1.68783 26.5913 1.82931C26.7684 1.97078 26.882 2.17679 26.9071 2.40199C27.0334 3.83424 27.0334 5.27482 26.9071 6.70707C26.8385 7.36235 26.8965 8.02471 27.0779 8.65811C27.2751 8.71563 27.445 8.84235 27.5563 9.01501C27.6677 9.18768 27.7131 9.39471 27.6841 9.59812C27.6552 9.80153 27.5538 9.98769 27.3987 10.1224C27.2436 10.2572 27.0451 10.3314 26.8396 10.3316L26.8388 10.3282Z" fill="#345D73"/>
<path d="M25.6397 3.28561C25.4132 3.28561 25.1961 3.19564 25.036 3.03551C24.8758 2.87539 24.7859 2.65822 24.7859 2.43177C24.7859 2.21062 24.1105 1.70769 22.9979 1.70769C21.8853 1.70769 21.2048 2.21062 21.2048 2.43177C21.2048 2.65822 21.1149 2.87539 20.9548 3.03551C20.7946 3.19564 20.5774 3.28561 20.351 3.28561C20.1245 3.28561 19.9073 3.19564 19.7472 3.03551C19.5871 2.87539 19.4971 2.65822 19.4971 2.43177C19.4971 1.06562 21.0341 0 22.9979 0C24.9618 0 26.4935 1.06818 26.4935 2.43177C26.4935 2.65822 26.4036 2.87539 26.2434 3.03551C26.0833 3.19564 25.8662 3.28561 25.6397 3.28561Z" fill="#345D73"/>
</g>
<defs>
<clipPath id="clip0_3_1365">
<rect width="46" height="46" fill="white"/>
</clipPath>
</defs>
</svg>
