<svg width="18" height="18" viewBox="0 0 18 18" fill="none" xmlns="http://www.w3.org/2000/svg">
<path d="M3.79581 15.7838L4.23664 15.1771L3.79581 15.7838ZM2.96619 14.9542L3.57295 14.5134L2.96619 14.9542ZM15.0338 14.9542L14.4271 14.5134L15.0338 14.9542ZM14.2042 15.7838L14.645 16.3906L14.2042 15.7838ZM14.2042 3.71619L14.645 3.10942L14.2042 3.71619ZM15.0338 4.54581L14.4271 4.98664L15.0338 4.54581ZM3.79581 3.71619L4.23664 4.32295L3.79581 3.71619ZM2.96619 4.54581L3.57295 4.98664L2.96619 4.54581ZM14.4134 12.0462L14.296 11.3054L14.4134 12.0462ZM11.2962 15.1634L10.5554 15.046L11.2962 15.1634ZM10.5 3.75C10.5 4.16421 10.8358 4.5 11.25 4.5C11.6642 4.5 12 4.16421 12 3.75H10.5ZM12 1.5C12 1.08579 11.6642 0.75 11.25 0.75C10.8358 0.75 10.5 1.08579 10.5 1.5H12ZM6 3.75C6 4.16421 6.33579 4.5 6.75 4.5C7.16421 4.5 7.5 4.16421 7.5 3.75H6ZM7.5 1.5C7.5 1.08579 7.16421 0.75 6.75 0.75C6.33579 0.75 6 1.08579 6 1.5H7.5ZM15.7283 12L16.4779 12.0257L15.7283 12ZM11.25 16.4783L11.2757 17.2279L11.25 16.4783ZM9 16.5V15.75C7.57714 15.75 6.57025 15.749 5.79373 15.6648C5.03125 15.5822 4.58036 15.4268 4.23664 15.1771L3.79581 15.7838L3.35497 16.3906C3.997 16.857 4.74205 17.0597 5.63216 17.1561C6.50823 17.251 7.61056 17.25 9 17.25V16.5ZM2.25 9.75H1.5C1.5 11.1394 1.49897 12.2418 1.59389 13.1178C1.69032 14.0079 1.89296 14.753 2.35942 15.395L2.96619 14.9542L3.57295 14.5134C3.32323 14.1696 3.16777 13.7188 3.08516 12.9563C3.00103 12.1798 3 11.1729 3 9.75H2.25ZM3.79581 15.7838L4.23664 15.1771C3.98196 14.992 3.75799 14.768 3.57295 14.5134L2.96619 14.9542L2.35942 15.395C2.63698 15.7771 2.97294 16.113 3.35497 16.3906L3.79581 15.7838ZM15.0338 14.9542L14.4271 14.5134C14.242 14.768 14.018 14.992 13.7634 15.1771L14.2042 15.7838L14.645 16.3906C15.0271 16.113 15.363 15.7771 15.6406 15.395L15.0338 14.9542ZM15.75 9.75H16.5C16.5 8.36056 16.501 7.25823 16.4061 6.38216C16.3097 5.49205 16.107 4.747 15.6406 4.10497L15.0338 4.54581L14.4271 4.98664C14.6768 5.33036 14.8322 5.78125 14.9148 6.54373C14.999 7.32025 15 8.32714 15 9.75H15.75ZM14.2042 3.71619L13.7634 4.32295C14.018 4.50799 14.242 4.73196 14.4271 4.98664L15.0338 4.54581L15.6406 4.10497C15.363 3.72294 15.0271 3.38698 14.645 3.10942L14.2042 3.71619ZM2.25 9.75H3C3 8.32714 3.00103 7.32025 3.08516 6.54373C3.16777 5.78125 3.32323 5.33036 3.57295 4.98664L2.96619 4.54581L2.35942 4.10497C1.89296 4.747 1.69032 5.49205 1.59389 6.38216C1.49897 7.25823 1.5 8.36056 1.5 9.75H2.25ZM3.79581 3.71619L3.35497 3.10942C2.97294 3.38698 2.63698 3.72294 2.35942 4.10497L2.96619 4.54581L3.57295 4.98664C3.75799 4.73196 3.98196 4.50799 4.23664 4.32295L3.79581 3.71619ZM14.4134 12.0462L14.296 11.3054C12.3705 11.6104 10.8604 13.1205 10.5554 15.046L11.2962 15.1634L12.0369 15.2807C12.2402 13.997 13.247 12.9902 14.5307 12.7869L14.4134 12.0462ZM6.75 3.75H7.5V3.0217H6.75H6V3.75H6.75ZM6.75 3.0217H7.5V1.5H6.75H6V3.0217H6.75ZM9 3V2.25C8.12746 2.25 7.37316 2.24991 6.72432 2.27214L6.75 3.0217L6.77568 3.77126C7.39336 3.75009 8.11916 3.75 9 3.75V3ZM6.75 3.0217L6.72432 2.27214C5.31692 2.32036 4.23248 2.47188 3.35497 3.10942L3.79581 3.71619L4.23664 4.32295C4.71604 3.97465 5.3868 3.81884 6.77568 3.77126L6.75 3.0217ZM11.25 3.75H12V3.0217H11.25H10.5V3.75H11.25ZM11.25 3.0217H12V1.5H11.25H10.5V3.0217H11.25ZM9 3V3.75C9.88084 3.75 10.6066 3.75009 11.2243 3.77126L11.25 3.0217L11.2757 2.27214C10.6268 2.24991 9.87254 2.25 9 2.25V3ZM11.25 3.0217L11.2243 3.77126C12.6132 3.81884 13.284 3.97465 13.7634 4.32295L14.2042 3.71619L14.645 3.10942C13.7675 2.47188 12.6831 2.32036 11.2757 2.27214L11.25 3.0217ZM15.7283 12L15.7283 11.25C15.0735 11.25 14.6572 11.2482 14.296 11.3054L14.4134 12.0462L14.5307 12.7869C14.7464 12.7528 15.0185 12.75 15.7283 12.75L15.7283 12ZM15.75 9.75H15C15 10.6308 14.9999 11.3566 14.9787 11.9743L15.7283 12L16.4779 12.0257C16.5001 11.3768 16.5 10.6225 16.5 9.75H15.75ZM15.7283 12L14.9787 11.9743C14.9312 13.3632 14.7754 14.034 14.4271 14.5134L15.0338 14.9542L15.6406 15.395C16.2781 14.5175 16.4296 13.4331 16.4779 12.0257L15.7283 12ZM11.25 16.4783L12 16.4783C12 15.7685 12.0028 15.4964 12.0369 15.2807L11.2962 15.1634L10.5554 15.046C10.4982 15.4072 10.5 15.8235 10.5 16.4783L11.25 16.4783ZM9 16.5V17.25C9.87255 17.25 10.6268 17.2501 11.2757 17.2279L11.25 16.4783L11.2243 15.7287C10.6066 15.7499 9.88084 15.75 9 15.75V16.5ZM11.25 16.4783L11.2757 17.2279C12.6831 17.1796 13.7675 17.0281 14.645 16.3906L14.2042 15.7838L13.7634 15.1771C13.284 15.5254 12.6132 15.6812 11.2243 15.7287L11.25 16.4783Z" fill="white"/>
<path d="M6 6.75C6 7.16421 5.66421 7.5 5.25 7.5C4.83579 7.5 4.5 7.16421 4.5 6.75C4.5 6.33579 4.83579 6 5.25 6C5.66421 6 6 6.33579 6 6.75Z" fill="white"/>
<path d="M6 9.75C6 10.1642 5.66421 10.5 5.25 10.5C4.83579 10.5 4.5 10.1642 4.5 9.75C4.5 9.33579 4.83579 9 5.25 9C5.66421 9 6 9.33579 6 9.75Z" fill="white"/>
<path d="M9.75 6.75C9.75 7.16421 9.41421 7.5 9 7.5C8.58579 7.5 8.25 7.16421 8.25 6.75C8.25 6.33579 8.58579 6 9 6C9.41421 6 9.75 6.33579 9.75 6.75Z" fill="white"/>
<path d="M9.75 9.75C9.75 10.1642 9.41421 10.5 9 10.5C8.58579 10.5 8.25 10.1642 8.25 9.75C8.25 9.33579 8.58579 9 9 9C9.41421 9 9.75 9.33579 9.75 9.75Z" fill="white"/>
<path d="M9.75 12.75C9.75 13.1642 9.41421 13.5 9 13.5C8.58579 13.5 8.25 13.1642 8.25 12.75C8.25 12.3358 8.58579 12 9 12C9.41421 12 9.75 12.3358 9.75 12.75Z" fill="white"/>
<path d="M13.5 6.75C13.5 7.16421 13.1642 7.5 12.75 7.5C12.3358 7.5 12 7.16421 12 6.75C12 6.33579 12.3358 6 12.75 6C13.1642 6 13.5 6.33579 13.5 6.75Z" fill="white"/>
<path d="M13.5 9.75C13.5 10.1642 13.1642 10.5 12.75 10.5C12.3358 10.5 12 10.1642 12 9.75C12 9.33579 12.3358 9 12.75 9C13.1642 9 13.5 9.33579 13.5 9.75Z" fill="white"/>
<path d="M6 12.75C6 13.1642 5.66421 13.5 5.25 13.5C4.83579 13.5 4.5 13.1642 4.5 12.75C4.5 12.3358 4.83579 12 5.25 12C5.66421 12 6 12.3358 6 12.75Z" fill="white"/>
</svg>
