<svg width="16" height="15" viewBox="0 0 16 15" fill="none" xmlns="http://www.w3.org/2000/svg">
<path d="M2.57064 1.2464C2.62362 1.19342 2.65012 1.16693 2.67346 1.14548C3.24732 0.618173 4.12941 0.618173 4.70327 1.14548C4.72661 1.16693 4.7531 1.19342 4.80609 1.2464L5.89974 2.34005C6.50127 2.94159 6.67332 3.85002 6.33339 4.62986C5.99346 5.40969 6.1655 6.31812 6.76704 6.91966L8.56464 8.71727C9.16618 9.31881 10.0746 9.49085 10.8544 9.15092C11.6343 8.81099 12.5427 8.98303 13.1443 9.58457L14.2379 10.6782C14.2909 10.7312 14.3174 10.7577 14.3388 10.781C14.8661 11.3549 14.8661 12.237 14.3388 12.8108C14.3174 12.8342 14.2909 12.8607 14.2379 12.9137L13.5731 13.5784C13.0318 14.1198 12.2514 14.347 11.5041 14.1809C6.41186 13.0493 2.43496 9.07245 1.30336 3.98025C1.13729 3.2329 1.36454 2.45251 1.90588 1.91116L2.57064 1.2464Z" stroke="white" stroke-width="1.5"/>
</svg>
