<svg width="15" height="15" viewBox="0 0 15 15" fill="none" xmlns="http://www.w3.org/2000/svg">
<path d="M11.4375 5.72936C11.6332 5.51077 11.6146 5.17491 11.396 4.9792C11.1774 4.78349 10.8416 4.80205 10.6459 5.02064L8.25937 7.68623C7.77579 8.22636 7.45013 8.58819 7.1717 8.82222C6.90646 9.04515 6.75067 9.09375 6.61458 9.09375C6.47849 9.09375 6.3227 9.04515 6.05747 8.82222C5.77903 8.58819 5.45337 8.22636 4.96979 7.68622L4.35413 6.99856C4.15842 6.77997 3.82257 6.76142 3.60397 6.95712C3.38538 7.15283 3.36683 7.48869 3.56254 7.70728L4.20451 8.42434C4.6549 8.92743 5.03057 9.34706 5.37383 9.63557C5.73695 9.94078 6.12861 10.1562 6.61458 10.1562C7.10055 10.1562 7.49222 9.94078 7.85533 9.63558C8.19859 9.34706 8.57426 8.92744 9.02464 8.42435L11.4375 5.72936Z" fill="#E7BC6D"/>
<path fill-rule="evenodd" clip-rule="evenodd" d="M10.6617 0.681391C9.85265 0.59374 8.83293 0.593744 7.53205 0.59375H7.46795C6.16707 0.593744 5.14735 0.59374 4.33834 0.681391C3.51275 0.770838 2.84381 0.956646 2.27267 1.37161C1.9269 1.62282 1.62282 1.9269 1.37161 2.27267C0.956646 2.84381 0.770838 3.51275 0.681391 4.33834C0.59374 5.14735 0.593744 6.16707 0.59375 7.46795V7.53205C0.593744 8.83293 0.59374 9.85265 0.681391 10.6617C0.770838 11.4873 0.956646 12.1562 1.37161 12.7273C1.62282 13.0731 1.9269 13.3772 2.27267 13.6284C2.84381 14.0434 3.51275 14.2292 4.33834 14.3186C5.14734 14.4063 6.16703 14.4063 7.46788 14.4062H7.53207C8.83291 14.4063 9.85266 14.4063 10.6617 14.3186C11.4873 14.2292 12.1562 14.0434 12.7273 13.6284C13.0731 13.3772 13.3772 13.0731 13.6284 12.7273C14.0434 12.1562 14.2292 11.4873 14.3186 10.6617C14.4063 9.85266 14.4063 8.83297 14.4062 7.53212V7.46793C14.4063 6.16709 14.4063 5.14734 14.3186 4.33834C14.2292 3.51275 14.0434 2.84381 13.6284 2.27267C13.3772 1.9269 13.0731 1.62282 12.7273 1.37161C12.1562 0.956646 11.4873 0.770838 10.6617 0.681391ZM2.89719 2.23119C3.25702 1.96975 3.71759 1.81736 4.45278 1.73771C5.19791 1.65698 6.16014 1.65625 7.5 1.65625C8.83986 1.65625 9.80209 1.65698 10.5472 1.73771C11.2824 1.81736 11.743 1.96975 12.1028 2.23119C12.3584 2.41687 12.5831 2.64162 12.7688 2.89719C13.0302 3.25702 13.1826 3.71759 13.2623 4.45278C13.343 5.19791 13.3438 6.16014 13.3438 7.5C13.3438 8.83986 13.343 9.80209 13.2623 10.5472C13.1826 11.2824 13.0302 11.743 12.7688 12.1028C12.5831 12.3584 12.3584 12.5831 12.1028 12.7688C11.743 13.0302 11.2824 13.1826 10.5472 13.2623C9.80209 13.343 8.83986 13.3438 7.5 13.3438C6.16014 13.3438 5.19791 13.343 4.45278 13.2623C3.71759 13.1826 3.25702 13.0302 2.89719 12.7688C2.64162 12.5831 2.41687 12.3584 2.23119 12.1028C1.96975 11.743 1.81736 11.2824 1.73771 10.5472C1.65698 9.80209 1.65625 8.83986 1.65625 7.5C1.65625 6.16014 1.65698 5.19791 1.73771 4.45278C1.81736 3.71759 1.96975 3.25702 2.23119 2.89719C2.41687 2.64162 2.64162 2.41687 2.89719 2.23119Z" fill="#E7BC6D"/>
</svg>
