<svg width="18" height="17" viewBox="0 0 18 17" fill="none" xmlns="http://www.w3.org/2000/svg">
<path d="M9.75 5.6875C9.75 5.27329 9.41422 4.9375 9 4.9375C8.58579 4.9375 8.25 5.27329 8.25 5.6875H9.75ZM6.9543 10.514C6.67015 10.8154 6.68412 11.29 6.9855 11.5742C7.28689 11.8583 7.76156 11.8444 8.0457 11.543L6.9543 10.514ZM1.78148 1.35185C1.45803 1.61061 1.40559 2.08257 1.66435 2.40602C1.92311 2.72947 2.39507 2.78191 2.71852 2.52315L1.78148 1.35185ZM4.59352 1.02315C4.91697 0.764394 4.96941 0.292425 4.71065 -0.0310213C4.45189 -0.354468 3.97993 -0.406909 3.65648 -0.148152L4.59352 1.02315ZM15.2815 2.52315C15.6049 2.78191 16.0769 2.72947 16.3357 2.40602C16.5944 2.08257 16.542 1.61061 16.2185 1.35185L15.2815 2.52315ZM14.3435 -0.148152C14.0201 -0.406909 13.5481 -0.354468 13.2893 -0.0310213C13.0306 0.292425 13.083 0.764394 13.4065 1.02315L14.3435 -0.148152ZM8.45521 10.0153L7.90951 9.50084L8.45521 10.0153ZM9 5.6875H8.25V8.64334H9H9.75V5.6875H9ZM7.5 11.0285L8.0457 11.543L9.00092 10.5298L8.45521 10.0153L7.90951 9.50084L6.9543 10.514L7.5 11.0285ZM2.25 1.9375L2.71852 2.52315L4.59352 1.02315L4.125 0.4375L3.65648 -0.148152L1.78148 1.35185L2.25 1.9375ZM15.75 1.9375L16.2185 1.35185L14.3435 -0.148152L13.875 0.4375L13.4065 1.02315L15.2815 2.52315L15.75 1.9375ZM16.5 8.6875H15.75C15.75 12.4154 12.7279 15.4375 9 15.4375V16.1875V16.9375C13.5563 16.9375 17.25 13.2438 17.25 8.6875H16.5ZM9 16.1875V15.4375C5.27208 15.4375 2.25 12.4154 2.25 8.6875H1.5H0.75C0.75 13.2438 4.44365 16.9375 9 16.9375V16.1875ZM1.5 8.6875H2.25C2.25 4.95958 5.27208 1.9375 9 1.9375V1.1875V0.437498C4.44365 0.437498 0.75 4.13115 0.75 8.6875H1.5ZM9 1.1875V1.9375C12.7279 1.9375 15.75 4.95958 15.75 8.6875H16.5H17.25C17.25 4.13115 13.5563 0.437498 9 0.437498V1.1875ZM9 8.64334H8.25C8.25 8.96214 8.1282 9.26888 7.90951 9.50084L8.45521 10.0153L9.00092 10.5298C9.48204 10.0195 9.75 9.34469 9.75 8.64334H9Z" fill="white"/>
</svg>
