<svg width="46" height="46" viewBox="0 0 46 46" fill="none" xmlns="http://www.w3.org/2000/svg">
<path fill-rule="evenodd" clip-rule="evenodd" d="M14.1642 10.5574C10.1805 10.5574 6.95113 13.7868 6.95113 17.7704C6.95113 21.7541 10.1805 24.9835 14.1642 24.9835C18.1479 24.9835 21.3773 21.7541 21.3773 17.7704C21.3773 13.7868 18.1479 10.5574 14.1642 10.5574ZM9.22894 17.7704C9.22894 15.0448 11.4385 12.8352 14.1642 12.8352C16.8899 12.8352 19.0994 15.0448 19.0994 17.7704C19.0994 20.4961 16.8899 22.7057 14.1642 22.7057C11.4385 22.7057 9.22894 20.4961 9.22894 17.7704Z" fill="#345D73"/>
<path fill-rule="evenodd" clip-rule="evenodd" d="M9.60857 27.2613C5.62491 27.2613 2.39551 30.4907 2.39551 34.4744C2.39551 38.458 5.62491 41.6874 9.60857 41.6874H18.7198C22.7035 41.6874 25.9329 38.458 25.9329 34.4744C25.9329 30.4907 22.7035 27.2613 18.7198 27.2613H9.60857ZM4.67332 34.4744C4.67332 31.7487 6.88291 29.5391 9.60857 29.5391H18.7198C21.4455 29.5391 23.6551 31.7487 23.6551 34.4744C23.6551 37.2 21.4455 39.4096 18.7198 39.4096H9.60857C6.88291 39.4096 4.67332 37.2 4.67332 34.4744Z" fill="#345D73"/>
<g clip-path="url(#clip0_3_1354)">
<path d="M35.4242 21.0758C35.1481 21.0758 34.9242 21.2997 34.9242 21.5758C34.9242 21.852 35.1481 22.0758 35.4242 22.0758H37.2424C37.5185 22.0758 37.7424 21.852 37.7424 21.5758C37.7424 21.2997 37.5185 21.0758 37.2424 21.0758H35.4242Z" fill="#345D73"/>
<path fill-rule="evenodd" clip-rule="evenodd" d="M38.0983 15.2517C38.1499 15.5477 38.1624 15.8994 38.1659 16.3018C38.2237 16.332 38.2804 16.3641 38.3362 16.3983C38.852 16.7143 39.2857 17.148 39.6018 17.6638C39.9498 18.2317 40.0763 18.8899 40.1286 19.7264C40.1666 20.335 40.1666 21.0753 40.1666 21.9844V22.0032C40.1666 22.5246 40.1666 22.989 40.1598 23.4023C40.1384 24.6875 40.0552 25.5963 39.6018 26.3363C39.2857 26.8521 38.852 27.2858 38.3362 27.6018C37.8437 27.9037 37.2849 28.0382 36.6026 28.1031C35.9331 28.1667 35.0952 28.1667 34.0263 28.1667H31.9737C30.9048 28.1667 30.0668 28.1667 29.3974 28.1031C28.715 28.0382 28.1563 27.9037 27.6637 27.6018C27.1479 27.2858 26.7143 26.8521 26.3982 26.3363C26.0963 25.8437 25.9618 25.285 25.8969 24.6026C25.8333 23.9332 25.8333 23.0952 25.8333 22.0263L25.8334 21.6758C25.8246 21.3463 25.8273 20.9781 25.8302 20.5809C25.8317 20.3716 25.8333 20.1543 25.8333 19.9305L25.8333 19.9016C25.8333 18.7601 25.8333 17.8642 25.9072 17.1532C25.9825 16.428 26.1393 15.8365 26.4927 15.3293C26.7063 15.0229 26.9653 14.7525 27.2609 14.5287C27.7531 14.1558 28.3291 13.9901 29.0315 13.9108C29.7168 13.8334 30.5789 13.8334 31.6709 13.8334L35.3163 13.8334C35.8487 13.8334 36.2999 13.8333 36.6597 13.8838C37.0439 13.9376 37.3965 14.0574 37.6787 14.3516C37.9236 14.6069 38.0396 14.9149 38.0983 15.2517ZM35.2812 14.8334C35.8583 14.8334 36.2387 14.8345 36.5209 14.8741C36.7864 14.9113 36.8897 14.9736 36.957 15.0438C37.0192 15.1087 37.0754 15.2066 37.1131 15.4234C37.1384 15.5684 37.1522 15.7455 37.1595 15.9722C36.8843 15.9218 36.5874 15.8908 36.2639 15.8708C35.6572 15.8334 34.9199 15.8334 34.0154 15.8334H31.9737C30.9048 15.8334 30.0668 15.8334 29.3974 15.897C28.715 15.9619 28.1563 16.0964 27.6637 16.3983C27.3982 16.561 27.1544 16.7548 26.9373 16.975C27.0105 16.4901 27.1303 16.1634 27.3131 15.901C27.4675 15.6795 27.6538 15.4855 27.8647 15.3258C28.1565 15.1048 28.5317 14.9736 29.1437 14.9045C29.7664 14.8341 30.572 14.8334 31.702 14.8334H35.2812ZM28.1862 17.2509C28.4952 17.0615 28.8829 16.9505 29.492 16.8925C30.1086 16.8339 30.8991 16.8334 32 16.8334H34C34.923 16.8334 35.6299 16.8336 36.2023 16.8689C36.7742 16.9042 37.174 16.973 37.4891 17.0927C37.6072 17.1375 37.714 17.1898 37.8137 17.2509C38.195 17.4845 38.5155 17.8051 38.7491 18.1863C38.9135 18.4546 39.0183 18.7807 39.0811 19.2576H35.4242C34.1439 19.2576 33.106 20.2955 33.106 21.5758C33.106 22.8561 34.1439 23.894 35.4242 23.894H39.1462C39.1077 24.8675 39.0014 25.402 38.7491 25.8138C38.5155 26.195 38.195 26.5156 37.8137 26.7492C37.5047 26.9386 37.1171 27.0496 36.5079 27.1076C35.8913 27.1662 35.1008 27.1667 34 27.1667H32C30.8991 27.1667 30.1086 27.1662 29.492 27.1076C28.8829 27.0496 28.4952 26.9386 28.1862 26.7492C27.805 26.5156 27.4844 26.195 27.2508 25.8138C27.0615 25.5048 26.9504 25.1172 26.8925 24.508C26.8338 23.8914 26.8333 23.1009 26.8333 22C26.8333 20.8992 26.8338 20.1087 26.8925 19.4921C26.9504 18.8829 27.0615 18.4953 27.2508 18.1863C27.4844 17.8051 27.805 17.4845 28.1862 17.2509ZM34.106 21.5758C34.106 20.8478 34.6962 20.2576 35.4242 20.2576H39.1517C39.1665 20.7402 39.1666 21.3097 39.1666 22C39.1666 22.3227 39.1666 22.6194 39.1651 22.894H35.4242C34.6962 22.894 34.106 22.3038 34.106 21.5758Z" fill="#345D73"/>
<path d="M35.4242 21.0758C35.1481 21.0758 34.9242 21.2997 34.9242 21.5758C34.9242 21.852 35.1481 22.0758 35.4242 22.0758H37.2424C37.5185 22.0758 37.7424 21.852 37.7424 21.5758C37.7424 21.2997 37.5185 21.0758 37.2424 21.0758H35.4242Z" stroke="#345D73" stroke-width="0.5" stroke-linecap="round"/>
<path fill-rule="evenodd" clip-rule="evenodd" d="M38.0983 15.2517C38.1499 15.5477 38.1624 15.8994 38.1659 16.3018C38.2237 16.332 38.2804 16.3641 38.3362 16.3983C38.852 16.7143 39.2857 17.148 39.6018 17.6638C39.9498 18.2317 40.0763 18.8899 40.1286 19.7264C40.1666 20.335 40.1666 21.0753 40.1666 21.9844V22.0032C40.1666 22.5246 40.1666 22.989 40.1598 23.4023C40.1384 24.6875 40.0552 25.5963 39.6018 26.3363C39.2857 26.8521 38.852 27.2858 38.3362 27.6018C37.8437 27.9037 37.2849 28.0382 36.6026 28.1031C35.9331 28.1667 35.0952 28.1667 34.0263 28.1667H31.9737C30.9048 28.1667 30.0668 28.1667 29.3974 28.1031C28.715 28.0382 28.1563 27.9037 27.6637 27.6018C27.1479 27.2858 26.7143 26.8521 26.3982 26.3363C26.0963 25.8437 25.9618 25.285 25.8969 24.6026C25.8333 23.9332 25.8333 23.0952 25.8333 22.0263L25.8334 21.6758C25.8246 21.3463 25.8273 20.9781 25.8302 20.5809C25.8317 20.3716 25.8333 20.1543 25.8333 19.9305L25.8333 19.9016C25.8333 18.7601 25.8333 17.8642 25.9072 17.1532C25.9825 16.428 26.1393 15.8365 26.4927 15.3293C26.7063 15.0229 26.9653 14.7525 27.2609 14.5287C27.7531 14.1558 28.3291 13.9901 29.0315 13.9108C29.7168 13.8334 30.5789 13.8334 31.6709 13.8334L35.3163 13.8334C35.8487 13.8334 36.2999 13.8333 36.6597 13.8838C37.0439 13.9376 37.3965 14.0574 37.6787 14.3516C37.9236 14.6069 38.0396 14.9149 38.0983 15.2517ZM35.2812 14.8334C35.8583 14.8334 36.2387 14.8345 36.5209 14.8741C36.7864 14.9113 36.8897 14.9736 36.957 15.0438C37.0192 15.1087 37.0754 15.2066 37.1131 15.4234C37.1384 15.5684 37.1522 15.7455 37.1595 15.9722C36.8843 15.9218 36.5874 15.8908 36.2639 15.8708C35.6572 15.8334 34.9199 15.8334 34.0154 15.8334H31.9737C30.9048 15.8334 30.0668 15.8334 29.3974 15.897C28.715 15.9619 28.1563 16.0964 27.6637 16.3983C27.3982 16.561 27.1544 16.7548 26.9373 16.975C27.0105 16.4901 27.1303 16.1634 27.3131 15.901C27.4675 15.6795 27.6538 15.4855 27.8647 15.3258C28.1565 15.1048 28.5317 14.9736 29.1437 14.9045C29.7664 14.8341 30.572 14.8334 31.702 14.8334H35.2812ZM28.1862 17.2509C28.4952 17.0615 28.8829 16.9505 29.492 16.8925C30.1086 16.8339 30.8991 16.8334 32 16.8334H34C34.923 16.8334 35.6299 16.8336 36.2023 16.8689C36.7742 16.9042 37.174 16.973 37.4891 17.0927C37.6072 17.1375 37.714 17.1898 37.8137 17.2509C38.195 17.4845 38.5155 17.8051 38.7491 18.1863C38.9135 18.4546 39.0183 18.7807 39.0811 19.2576H35.4242C34.1439 19.2576 33.106 20.2955 33.106 21.5758C33.106 22.8561 34.1439 23.894 35.4242 23.894H39.1462C39.1077 24.8675 39.0014 25.402 38.7491 25.8138C38.5155 26.195 38.195 26.5156 37.8137 26.7492C37.5047 26.9386 37.1171 27.0496 36.5079 27.1076C35.8913 27.1662 35.1008 27.1667 34 27.1667H32C30.8991 27.1667 30.1086 27.1662 29.492 27.1076C28.8829 27.0496 28.4952 26.9386 28.1862 26.7492C27.805 26.5156 27.4844 26.195 27.2508 25.8138C27.0615 25.5048 26.9504 25.1172 26.8925 24.508C26.8338 23.8914 26.8333 23.1009 26.8333 22C26.8333 20.8992 26.8338 20.1087 26.8925 19.4921C26.9504 18.8829 27.0615 18.4953 27.2508 18.1863C27.4844 17.8051 27.805 17.4845 28.1862 17.2509ZM34.106 21.5758C34.106 20.8478 34.6962 20.2576 35.4242 20.2576H39.1517C39.1665 20.7402 39.1666 21.3097 39.1666 22C39.1666 22.3227 39.1666 22.6194 39.1651 22.894H35.4242C34.6962 22.894 34.106 22.3038 34.106 21.5758Z" stroke="#345D73" stroke-width="0.5" stroke-linecap="round"/>
</g>
<defs>
<clipPath id="clip0_3_1354">
<rect width="16" height="16" fill="white" transform="translate(25 13)"/>
</clipPath>
</defs>
</svg>
