<svg width="46" height="46" viewBox="0 0 46 46" fill="none" xmlns="http://www.w3.org/2000/svg">
<path fill-rule="evenodd" clip-rule="evenodd" d="M23 7.66663C19.0305 7.66663 15.8125 10.8846 15.8125 14.8541C15.8125 18.8237 19.0305 22.0416 23 22.0416C26.9695 22.0416 30.1875 18.8237 30.1875 14.8541C30.1875 10.8846 26.9695 7.66663 23 7.66663ZM18.6875 14.8541C18.6875 12.4724 20.6183 10.5416 23 10.5416C25.3817 10.5416 27.3125 12.4724 27.3125 14.8541C27.3125 17.2359 25.3817 19.1666 23 19.1666C20.6183 19.1666 18.6875 17.2359 18.6875 14.8541Z" fill="#345D73"/>
<path fill-rule="evenodd" clip-rule="evenodd" d="M17.25 24.9166C13.2805 24.9166 10.0625 28.1346 10.0625 32.1041C10.0625 36.0737 13.2805 39.2916 17.25 39.2916H28.75C32.7195 39.2916 35.9375 36.0737 35.9375 32.1041C35.9375 28.1346 32.7195 24.9166 28.75 24.9166H17.25ZM12.9375 32.1041C12.9375 29.7224 14.8683 27.7916 17.25 27.7916H28.75C31.1317 27.7916 33.0625 29.7224 33.0625 32.1041C33.0625 34.4859 31.1317 36.4166 28.75 36.4166H17.25C14.8683 36.4166 12.9375 34.4859 12.9375 32.1041Z" fill="#345D73"/>
<path d="M14.8583 19.9115C14.556 19.4259 13.9887 19.1666 13.4167 19.1666C11.0349 19.1666 9.10417 17.2359 9.10417 14.8541C9.10417 12.4724 11.0349 10.5416 13.4167 10.5416C13.9887 10.5416 14.556 10.2824 14.8583 9.79671C14.8716 9.77523 14.8851 9.75381 14.8986 9.73244C15.402 8.93797 15.1469 7.81306 14.2121 7.71014C13.9509 7.68139 13.6855 7.66663 13.4167 7.66663C9.44712 7.66663 6.22917 10.8846 6.22917 14.8541C6.22917 18.8237 9.44712 22.0416 13.4167 22.0416C13.6855 22.0416 13.9509 22.0269 14.2121 21.9981C15.1469 21.8952 15.402 20.7703 14.8986 19.9758C14.8851 19.9544 14.8716 19.933 14.8583 19.9115Z" fill="#345D73"/>
<path d="M9.02422 35.1073C8.80665 34.7443 8.42259 34.5 7.99938 34.5H7.66667C5.28494 34.5 3.35417 32.5692 3.35417 30.1875C3.35417 27.8057 5.28494 25.875 7.66667 25.875H7.99938C8.42259 25.875 8.80665 25.6306 9.02422 25.2676C9.55534 24.3815 8.97898 23 7.94591 23H7.66667C3.69712 23 0.479172 26.2179 0.479172 30.1875C0.479172 34.157 3.69712 37.375 7.66667 37.375H7.94591C8.97898 37.375 9.55534 35.9934 9.02422 35.1073Z" fill="#345D73"/>
<path d="M31.1014 19.9758C30.5981 20.7703 30.8531 21.8952 31.7879 21.9981C32.0491 22.0269 32.3145 22.0416 32.5833 22.0416C36.5529 22.0416 39.7708 18.8237 39.7708 14.8541C39.7708 10.8846 36.5529 7.66663 32.5833 7.66663C32.3145 7.66663 32.0491 7.68139 31.7879 7.71014C30.8531 7.81306 30.5981 8.93796 31.1014 9.73244C31.1149 9.7538 31.1284 9.77522 31.1417 9.7967C31.444 10.2823 32.0113 10.5416 32.5833 10.5416C34.9651 10.5416 36.8958 12.4724 36.8958 14.8541C36.8958 17.2359 34.9651 19.1666 32.5833 19.1666C32.0113 19.1666 31.444 19.4259 31.1417 19.9115C31.1284 19.933 31.1149 19.9544 31.1014 19.9758Z" fill="#345D73"/>
<path d="M36.9758 35.1073C36.4447 35.9934 37.021 37.375 38.0541 37.375H38.3333C42.3029 37.375 45.5208 34.157 45.5208 30.1875C45.5208 26.2179 42.3029 23 38.3333 23H38.0541C37.021 23 36.4447 24.3815 36.9758 25.2676C37.1934 25.6306 37.5774 25.875 38.0006 25.875H38.3333C40.7151 25.875 42.6458 27.8057 42.6458 30.1875C42.6458 32.5692 40.7151 34.5 38.3333 34.5H38.0006C37.5774 34.5 37.1934 34.7443 36.9758 35.1073Z" fill="#345D73"/>
</svg>
