<svg width="14" height="18" viewBox="0 0 14 18" fill="none" xmlns="http://www.w3.org/2000/svg">
<path d="M9.08559 14.7443L8.49196 14.2859L9.08559 14.7443ZM4.91441 14.7443L4.32077 15.2026L4.91441 14.7443ZM7 16.5V15.75V16.5ZM13 7.0573H12.25C12.25 7.94524 11.7897 9.1624 11.0372 10.5135C10.3007 11.8359 9.34696 13.1786 8.49196 14.2859L9.08559 14.7443L9.67923 15.2026C10.5565 14.0664 11.56 12.6576 12.3476 11.2434C13.1193 9.8579 13.75 8.35334 13.75 7.0573H13ZM4.91441 14.7443L5.50804 14.2859C4.65304 13.1786 3.69931 11.8359 2.96282 10.5135C2.21032 9.1624 1.75 7.94524 1.75 7.0573H1H0.25C0.25 8.35334 0.880724 9.8579 1.65235 11.2434C2.43998 12.6576 3.44346 14.0664 4.32077 15.2026L4.91441 14.7443ZM1 7.0573H1.75C1.75 3.78592 4.16182 1.25 7 1.25V0.5V-0.25C3.21077 -0.25 0.25 3.08568 0.25 7.0573H1ZM7 0.5V1.25C9.83818 1.25 12.25 3.78592 12.25 7.0573H13H13.75C13.75 3.08568 10.7892 -0.25 7 -0.25V0.5ZM9.08559 14.7443L8.49196 14.2859C8.02374 14.8923 7.72872 15.2703 7.46905 15.5098C7.24094 15.7203 7.11857 15.75 7 15.75V16.5V17.25C7.61135 17.25 8.07989 16.9871 8.48616 16.6123C8.86085 16.2666 9.24367 15.7667 9.67923 15.2026L9.08559 14.7443ZM4.91441 14.7443L4.32077 15.2026C4.75633 15.7667 5.13915 16.2666 5.51384 16.6123C5.92011 16.9871 6.38865 17.25 7 17.25V16.5V15.75C6.88143 15.75 6.75906 15.7203 6.53095 15.5098C6.27128 15.2703 5.97626 14.8923 5.50804 14.2859L4.91441 14.7443ZM4.75 7.35536H4C4 9.02061 5.33224 10.3905 7 10.3905V9.64047V8.89047C6.18248 8.89047 5.5 8.21417 5.5 7.35536H4.75ZM7 9.64047V10.3905C8.66776 10.3905 10 9.02061 10 7.35536H9.25H8.5C8.5 8.21417 7.81752 8.89047 7 8.89047V9.64047ZM9.25 7.35536H10C10 5.6901 8.66776 4.32024 7 4.32024V5.07024V5.82024C7.81752 5.82024 8.5 6.49654 8.5 7.35536H9.25ZM7 5.07024V4.32024C5.33224 4.32024 4 5.6901 4 7.35536H4.75H5.5C5.5 6.49654 6.18248 5.82024 7 5.82024V5.07024Z" fill="white"/>
</svg>
