<svg width="17" height="22" viewBox="0 0 17 22" fill="none" xmlns="http://www.w3.org/2000/svg">
<path d="M6.88972 1.63513C7.83423 1.63523 8.61023 2.47272 8.61043 3.50232V7.76404C8.89007 7.54074 9.23545 7.42256 9.58894 7.4281H9.62117C10.2809 7.42814 10.8547 7.83329 11.1407 8.43103C11.4517 8.09666 11.8803 7.90604 12.3292 7.90271C13.0617 7.90271 13.6876 8.40857 13.9337 9.11169C14.2377 8.82965 14.6324 8.6748 15.0411 8.67712H15.0714C16.0133 8.67726 16.7838 9.50333 16.7862 10.5306C16.7906 12.494 16.7924 13.1519 16.7901 14.934C16.7894 15.6 16.7939 16.4222 16.793 17.5248C16.7906 19.9891 14.9739 21.9955 12.7335 21.9955V22.0004H8.31453C6.83565 22.0004 5.47193 21.1127 4.75496 19.6908L0.833084 11.9095C0.755535 11.755 0.793044 11.5657 0.922928 11.4545L1.32625 11.1097C1.79175 10.6631 2.41506 10.4352 3.0489 10.4799C3.69616 10.5288 4.29481 10.853 4.70125 11.3754L5.16512 11.9564L5.17293 3.50134C5.1735 2.47228 5.94611 1.63513 6.88972 1.63513ZM6.8907 2.37537C6.34191 2.37537 5.8864 2.8803 5.88582 3.50134L5.87996 12.9896C5.87991 13.1457 5.78409 13.2847 5.64168 13.3373C5.49921 13.3899 5.34014 13.3449 5.24422 13.224L4.14656 11.8461C3.86492 11.4816 3.44948 11.2537 2.9991 11.2181C2.55861 11.1884 2.12628 11.3492 1.80476 11.6615C1.80021 11.6657 1.79484 11.6702 1.79012 11.6742L1.60359 11.8353L5.39168 19.349C5.98456 20.5249 7.10497 21.2592 8.31551 21.2592H12.713C14.5597 21.2591 16.0634 19.5825 16.0655 17.5258C16.0666 16.4231 16.0677 15.5973 16.0684 14.931C16.0707 13.1504 16.0718 12.4934 16.0675 10.5316C16.066 9.91186 15.6192 9.41736 15.0714 9.41736H15.0421C14.4928 9.41736 14.0333 9.90395 14.0333 10.5258V11.4222C14.0333 11.6266 13.8729 11.7924 13.6749 11.7924C13.4769 11.7923 13.3165 11.6266 13.3165 11.4222V9.76599C13.3165 9.14401 12.8812 8.63806 12.3321 8.63806C11.7799 8.6381 11.3448 9.14421 11.3448 9.76599V11.5219C11.3448 11.7262 11.1843 11.8919 10.9864 11.892C10.7884 11.892 10.628 11.7262 10.628 11.5219V9.28357C10.6279 8.66206 10.1704 8.16833 9.62117 8.16833H9.58992C9.05518 8.16833 8.61141 8.63633 8.6114 9.23572V11.7552C8.6114 11.9596 8.45091 12.1253 8.25301 12.1254C8.05504 12.1254 7.89461 11.9596 7.89461 11.7552V9.30994C7.89461 9.30149 7.89364 9.2922 7.89363 9.28357C7.89363 9.26333 7.89461 9.2429 7.89461 9.22302V3.50232C7.89441 2.88102 7.43935 2.37559 6.8907 2.37537Z" fill="white"/>
<path d="M4.03426 3.66251C4.23223 3.66251 4.39275 3.4968 4.39275 3.29243C4.39852 1.88023 5.50915 0.738718 6.87692 0.738718C8.24486 0.738718 9.35532 1.88023 9.36109 3.29243C9.36109 3.4968 9.52161 3.66251 9.71958 3.66251C9.91755 3.66251 10.0781 3.4968 10.0781 3.29243C10.0714 1.47202 8.64028 0 6.87692 0C5.11374 0 3.68243 1.47202 3.67578 3.29243C3.67578 3.4968 3.83629 3.66251 4.03426 3.66251Z" fill="white"/>
</svg>
