<svg width="11" height="11" viewBox="0 0 11 11" fill="none" xmlns="http://www.w3.org/2000/svg">
<path fill-rule="evenodd" clip-rule="evenodd" d="M9.35 1.58125C8.31875 0.55 6.94375 0 5.5 0C2.475 0 0 2.475 0 5.5C0 6.4625 0.275004 7.425 0.756254 8.25L0 11L2.88751 10.2437C3.71251 10.6562 4.60625 10.9312 5.5 10.9312C8.525 10.9312 11 8.45625 11 5.43125C11 3.9875 10.3813 2.6125 9.35 1.58125ZM5.5 10.0375C4.675 10.0375 3.85 9.83125 3.1625 9.41875L3.025 9.35L1.30625 9.83125L1.7875 8.18125L1.65 7.975C1.16875 7.21875 0.962496 6.39375 0.962496 5.56875C0.962496 3.09375 3.025 1.03125 5.5 1.03125C6.7375 1.03125 7.83751 1.5125 8.73126 2.3375C9.62501 3.23125 10.0375 4.33125 10.0375 5.56875C10.0375 7.975 8.04375 10.0375 5.5 10.0375ZM7.975 6.6C7.8375 6.53125 7.15001 6.1875 7.01251 6.1875C6.87501 6.11875 6.80624 6.11875 6.73749 6.25625C6.66874 6.39375 6.39376 6.66875 6.32501 6.80625C6.25626 6.875 6.18749 6.875 6.04999 6.875C5.91249 6.80625 5.50001 6.66875 4.95001 6.1875C4.53751 5.84375 4.2625 5.3625 4.19375 5.225C4.125 5.0875 4.19376 5.01875 4.26251 4.95C4.33126 4.88125 4.4 4.8125 4.46875 4.74375C4.5375 4.675 4.53751 4.60625 4.60626 4.5375C4.67501 4.46875 4.60626 4.4 4.60626 4.33125C4.60626 4.2625 4.33125 3.575 4.19375 3.3C4.125 3.09375 3.98751 3.09375 3.91876 3.09375C3.85001 3.09375 3.78124 3.09375 3.64374 3.09375C3.57499 3.09375 3.43749 3.09375 3.29999 3.23125C3.16249 3.36875 2.81875 3.7125 2.81875 4.4C2.81875 5.0875 3.3 5.70625 3.36875 5.84375C3.4375 5.9125 4.33124 7.35625 5.70624 7.90625C6.87499 8.3875 7.08126 8.25 7.35626 8.25C7.63126 8.25 8.18125 7.90625 8.25 7.63125C8.3875 7.2875 8.3875 7.0125 8.31875 7.0125C8.25 6.66875 8.1125 6.66875 7.975 6.6Z" fill="white"/>
</svg>
